<mxfile host="app.diagrams.net" agent="Mozilla/5.0 (Macintosh; Intel Mac OS X 10_15_7) AppleWebKit/537.36 (KHTML, like Gecko) Chrome/132.0.0.0 Safari/537.36" version="26.1.0">
  <diagram name="Page-1" id="D1ch2yZmgnM99jaex9_K">
    <mxGraphModel dx="1140" dy="760" grid="1" gridSize="10" guides="1" tooltips="1" connect="1" arrows="1" fold="1" page="1" pageScale="1" pageWidth="850" pageHeight="1100" math="0" shadow="0">
      <root>
        <mxCell id="0" />
        <mxCell id="1" parent="0" />
        <mxCell id="Mp5TVmXl3hRqCoAH_pe9-3" value="" style="rounded=0;whiteSpace=wrap;html=1;fillColor=#dae8fc;strokeColor=#6c8ebf;" parent="1" vertex="1">
          <mxGeometry x="520" y="100" width="760" height="110" as="geometry" />
        </mxCell>
        <mxCell id="Mp5TVmXl3hRqCoAH_pe9-7" value="LOOP,CARD,MOBILE MONEY" style="rounded=0;whiteSpace=wrap;html=1;fillColor=#f5f5f5;fontColor=#333333;strokeColor=#666666;" parent="1" vertex="1">
          <mxGeometry x="560" y="135" width="200" height="45" as="geometry" />
        </mxCell>
        <mxCell id="Mp5TVmXl3hRqCoAH_pe9-9" value="POS PAYMENT CHANNELS" style="text;html=1;align=center;verticalAlign=middle;whiteSpace=wrap;rounded=0;" parent="1" vertex="1">
          <mxGeometry x="570" y="178" width="170" height="30" as="geometry" />
        </mxCell>
        <mxCell id="iCkai9v9nbMNsgSZpqgC-2" value="" style="rounded=0;whiteSpace=wrap;html=1;fillColor=#f5f5f5;fontColor=#333333;strokeColor=#666666;" vertex="1" parent="1">
          <mxGeometry x="780" y="140" width="210" height="40" as="geometry" />
        </mxCell>
        <mxCell id="iCkai9v9nbMNsgSZpqgC-3" value="CARD SDK, POS LOOP APP,TMS" style="text;html=1;align=center;verticalAlign=middle;whiteSpace=wrap;rounded=0;" vertex="1" parent="1">
          <mxGeometry x="789" y="140" width="194" height="33.5" as="geometry" />
        </mxCell>
        <mxCell id="iCkai9v9nbMNsgSZpqgC-5" value="POS TERMINAL&amp;nbsp;" style="text;html=1;align=center;verticalAlign=middle;whiteSpace=wrap;rounded=0;" vertex="1" parent="1">
          <mxGeometry x="827" y="177" width="100" height="30" as="geometry" />
        </mxCell>
        <mxCell id="iCkai9v9nbMNsgSZpqgC-7" value="" style="rounded=0;whiteSpace=wrap;html=1;" vertex="1" parent="1">
          <mxGeometry x="1020" y="141" width="200" height="40" as="geometry" />
        </mxCell>
        <mxCell id="iCkai9v9nbMNsgSZpqgC-9" value="PORTALS&amp;nbsp;" style="text;html=1;align=center;verticalAlign=middle;whiteSpace=wrap;rounded=0;" vertex="1" parent="1">
          <mxGeometry x="1082" y="177" width="60" height="30" as="geometry" />
        </mxCell>
        <mxCell id="iCkai9v9nbMNsgSZpqgC-10" value="MERCHANT WEB/APP,BOSS" style="text;html=1;align=center;verticalAlign=middle;whiteSpace=wrap;rounded=0;" vertex="1" parent="1">
          <mxGeometry x="1020" y="143.5" width="180" height="30" as="geometry" />
        </mxCell>
        <mxCell id="iCkai9v9nbMNsgSZpqgC-19" value="&lt;font style=&quot;color: rgb(255, 255, 255);&quot;&gt;INTEGRATION LAYER&lt;/font&gt;" style="text;html=1;align=center;verticalAlign=middle;whiteSpace=wrap;rounded=0;" vertex="1" parent="1">
          <mxGeometry x="810" y="234" width="140" height="30" as="geometry" />
        </mxCell>
        <mxCell id="iCkai9v9nbMNsgSZpqgC-32" value="" style="rounded=0;whiteSpace=wrap;html=1;rotation=-90;" vertex="1" parent="1">
          <mxGeometry x="187" y="329.25" width="532.75" height="75.5" as="geometry" />
        </mxCell>
        <mxCell id="iCkai9v9nbMNsgSZpqgC-33" value="" style="rounded=0;whiteSpace=wrap;html=1;rotation=-90;" vertex="1" parent="1">
          <mxGeometry x="1069.63" y="326.16" width="538.56" height="81.25" as="geometry" />
        </mxCell>
        <mxCell id="iCkai9v9nbMNsgSZpqgC-35" value="INTERACTION&amp;nbsp; LAYER&amp;nbsp;" style="text;html=1;align=center;verticalAlign=middle;whiteSpace=wrap;rounded=0;" vertex="1" parent="1">
          <mxGeometry x="817" y="102" width="140" height="30" as="geometry" />
        </mxCell>
        <mxCell id="iCkai9v9nbMNsgSZpqgC-37" value="IT SECURITY" style="text;html=1;align=center;verticalAlign=middle;whiteSpace=wrap;rounded=0;rotation=-90;" vertex="1" parent="1">
          <mxGeometry x="370" y="361" width="120" height="30" as="geometry" />
        </mxCell>
        <mxCell id="iCkai9v9nbMNsgSZpqgC-38" value="MONITORING" style="text;html=1;align=center;verticalAlign=middle;whiteSpace=wrap;rounded=0;fontSize=10;" vertex="1" parent="1">
          <mxGeometry x="1320" y="140" width="40" height="30" as="geometry" />
        </mxCell>
        <mxCell id="iCkai9v9nbMNsgSZpqgC-39" value="DEVOPS&amp;nbsp;" style="text;html=1;align=center;verticalAlign=middle;whiteSpace=wrap;rounded=0;" vertex="1" parent="1">
          <mxGeometry x="1307" y="281.25" width="60" height="30" as="geometry" />
        </mxCell>
        <mxCell id="iCkai9v9nbMNsgSZpqgC-40" value="&lt;span style=&quot;white-space: pre;&quot;&gt;&#x9;&lt;/span&gt;EMAIL SERVER" style="text;html=1;align=center;verticalAlign=middle;whiteSpace=wrap;rounded=0;fontSize=9;" vertex="1" parent="1">
          <mxGeometry x="1275" y="444.5" width="105" height="30" as="geometry" />
        </mxCell>
        <mxCell id="iCkai9v9nbMNsgSZpqgC-42" value="" style="rounded=0;whiteSpace=wrap;html=1;fillColor=#1ba1e2;fontColor=#ffffff;strokeColor=#006EAF;" vertex="1" parent="1">
          <mxGeometry x="414" y="640" width="970" height="50" as="geometry" />
        </mxCell>
        <mxCell id="iCkai9v9nbMNsgSZpqgC-43" value="Infrastructure&amp;nbsp;" style="text;html=1;align=center;verticalAlign=middle;whiteSpace=wrap;rounded=0;fontColor=#FFFFFF;fontSize=16;" vertex="1" parent="1">
          <mxGeometry x="817" y="770" width="53" height="30" as="geometry" />
        </mxCell>
        <mxCell id="iCkai9v9nbMNsgSZpqgC-46" value="" style="rounded=0;whiteSpace=wrap;html=1;" vertex="1" parent="1">
          <mxGeometry x="460" y="645" width="120" height="40" as="geometry" />
        </mxCell>
        <mxCell id="iCkai9v9nbMNsgSZpqgC-47" value="" style="rounded=0;whiteSpace=wrap;html=1;" vertex="1" parent="1">
          <mxGeometry x="688.5" y="647" width="120" height="40" as="geometry" />
        </mxCell>
        <mxCell id="iCkai9v9nbMNsgSZpqgC-48" value="" style="rounded=0;whiteSpace=wrap;html=1;" vertex="1" parent="1">
          <mxGeometry x="940" y="648" width="120" height="40" as="geometry" />
        </mxCell>
        <mxCell id="iCkai9v9nbMNsgSZpqgC-49" value="" style="rounded=0;whiteSpace=wrap;html=1;" vertex="1" parent="1">
          <mxGeometry x="1175" y="646" width="120" height="40" as="geometry" />
        </mxCell>
        <mxCell id="iCkai9v9nbMNsgSZpqgC-50" value="DATABASE" style="text;html=1;align=center;verticalAlign=middle;whiteSpace=wrap;rounded=0;" vertex="1" parent="1">
          <mxGeometry x="490" y="655" width="60" height="30" as="geometry" />
        </mxCell>
        <mxCell id="iCkai9v9nbMNsgSZpqgC-51" value="STORAGE" style="text;html=1;align=center;verticalAlign=middle;whiteSpace=wrap;rounded=0;" vertex="1" parent="1">
          <mxGeometry x="720" y="658" width="60" height="30" as="geometry" />
        </mxCell>
        <mxCell id="iCkai9v9nbMNsgSZpqgC-52" value="NETWORK" style="text;html=1;align=center;verticalAlign=middle;whiteSpace=wrap;rounded=0;" vertex="1" parent="1">
          <mxGeometry x="961" y="658" width="60" height="30" as="geometry" />
        </mxCell>
        <mxCell id="iCkai9v9nbMNsgSZpqgC-53" value="COMPUTES" style="text;html=1;align=center;verticalAlign=middle;whiteSpace=wrap;rounded=0;" vertex="1" parent="1">
          <mxGeometry x="1206" y="659" width="60" height="30" as="geometry" />
        </mxCell>
        <mxCell id="iCkai9v9nbMNsgSZpqgC-54" value="" style="rounded=0;whiteSpace=wrap;html=1;fillColor=#a0522d;fontColor=#ffffff;strokeColor=#6D1F00;" vertex="1" parent="1">
          <mxGeometry x="520" y="290" width="760" height="53" as="geometry" />
        </mxCell>
        <mxCell id="iCkai9v9nbMNsgSZpqgC-55" value="Payment Service/inovation" style="text;html=1;align=center;verticalAlign=middle;whiteSpace=wrap;rounded=0;fontColor=#FFFFFF;" vertex="1" parent="1">
          <mxGeometry x="817" y="283" width="153" height="30" as="geometry" />
        </mxCell>
        <mxCell id="iCkai9v9nbMNsgSZpqgC-57" value="" style="rounded=0;whiteSpace=wrap;html=1;fillColor=#6d8764;fontColor=#ffffff;strokeColor=#3A5431;" vertex="1" parent="1">
          <mxGeometry x="520" y="234" width="760" height="46" as="geometry" />
        </mxCell>
        <mxCell id="iCkai9v9nbMNsgSZpqgC-58" value="&lt;font style=&quot;color: rgb(255, 255, 255);&quot;&gt;Integration Layer&lt;/font&gt;" style="text;html=1;align=center;verticalAlign=middle;whiteSpace=wrap;rounded=0;" vertex="1" parent="1">
          <mxGeometry x="832" y="230" width="95" height="30" as="geometry" />
        </mxCell>
        <mxCell id="iCkai9v9nbMNsgSZpqgC-60" value="" style="rounded=0;whiteSpace=wrap;html=1;" vertex="1" parent="1">
          <mxGeometry x="560" y="243" width="140" height="26" as="geometry" />
        </mxCell>
        <mxCell id="iCkai9v9nbMNsgSZpqgC-61" value="API gateway&amp;nbsp;" style="text;html=1;align=center;verticalAlign=middle;whiteSpace=wrap;rounded=0;" vertex="1" parent="1">
          <mxGeometry x="580" y="240" width="100" height="30" as="geometry" />
        </mxCell>
        <mxCell id="iCkai9v9nbMNsgSZpqgC-74" value="TIETO" style="rounded=0;whiteSpace=wrap;html=1;" vertex="1" parent="1">
          <mxGeometry x="1043" y="242" width="120" height="26" as="geometry" />
        </mxCell>
        <mxCell id="iCkai9v9nbMNsgSZpqgC-75" value="" style="rounded=0;whiteSpace=wrap;html=1;fillColor=#fa6800;fontColor=#000000;strokeColor=#C73500;" vertex="1" parent="1">
          <mxGeometry x="520" y="350" width="230" height="170" as="geometry" />
        </mxCell>
        <mxCell id="iCkai9v9nbMNsgSZpqgC-76" value="&lt;font style=&quot;color: light-dark(rgb(245, 244, 244), rgb(237, 237, 237));&quot;&gt;Middleware&amp;amp; Enables&lt;/font&gt;" style="text;html=1;align=center;verticalAlign=middle;whiteSpace=wrap;rounded=0;" vertex="1" parent="1">
          <mxGeometry x="560" y="357.85" width="140" height="30" as="geometry" />
        </mxCell>
        <mxCell id="iCkai9v9nbMNsgSZpqgC-83" value="" style="rounded=0;whiteSpace=wrap;html=1;fillColor=#bac8d3;strokeColor=#23445d;" vertex="1" parent="1">
          <mxGeometry x="770" y="361" width="180" height="159" as="geometry" />
        </mxCell>
        <mxCell id="iCkai9v9nbMNsgSZpqgC-85" value="&lt;font style=&quot;&quot;&gt;&amp;nbsp;Analytics &amp;amp; Compliance&lt;/font&gt;" style="text;html=1;align=center;verticalAlign=middle;whiteSpace=wrap;rounded=0;fontColor=#000000;" vertex="1" parent="1">
          <mxGeometry x="789" y="361" width="140" height="30" as="geometry" />
        </mxCell>
        <mxCell id="iCkai9v9nbMNsgSZpqgC-86" value="Fraud Management" style="rounded=0;whiteSpace=wrap;html=1;" vertex="1" parent="1">
          <mxGeometry x="787" y="391" width="140" height="21.15" as="geometry" />
        </mxCell>
        <mxCell id="iCkai9v9nbMNsgSZpqgC-87" value="" style="rounded=0;whiteSpace=wrap;html=1;" vertex="1" parent="1">
          <mxGeometry x="789" y="420" width="141" height="24.5" as="geometry" />
        </mxCell>
        <mxCell id="iCkai9v9nbMNsgSZpqgC-88" value="AML" style="text;html=1;align=center;verticalAlign=middle;whiteSpace=wrap;rounded=0;" vertex="1" parent="1">
          <mxGeometry x="827" y="417.25" width="60" height="30" as="geometry" />
        </mxCell>
        <mxCell id="iCkai9v9nbMNsgSZpqgC-89" value="" style="rounded=0;whiteSpace=wrap;html=1;" vertex="1" parent="1">
          <mxGeometry x="787" y="458" width="140" height="19.5" as="geometry" />
        </mxCell>
        <mxCell id="iCkai9v9nbMNsgSZpqgC-90" value="BI Wharehousing" style="text;html=1;align=center;verticalAlign=middle;whiteSpace=wrap;rounded=0;" vertex="1" parent="1">
          <mxGeometry x="808.5" y="451.75" width="104.5" height="30" as="geometry" />
        </mxCell>
        <mxCell id="iCkai9v9nbMNsgSZpqgC-92" value="" style="rounded=0;whiteSpace=wrap;html=1;fillColor=#1ba1e2;strokeColor=#006EAF;fontColor=#ffffff;" vertex="1" parent="1">
          <mxGeometry x="960" y="355.5" width="320" height="159" as="geometry" />
        </mxCell>
        <mxCell id="iCkai9v9nbMNsgSZpqgC-93" value="Core Service" style="text;html=1;align=center;verticalAlign=middle;whiteSpace=wrap;rounded=0;fontColor=#FFFFFF;" vertex="1" parent="1">
          <mxGeometry x="1079" y="357" width="91" height="30" as="geometry" />
        </mxCell>
        <mxCell id="iCkai9v9nbMNsgSZpqgC-94" value="Reconciliation" style="rounded=0;whiteSpace=wrap;html=1;" vertex="1" parent="1">
          <mxGeometry x="970" y="387.25" width="120" height="32.75" as="geometry" />
        </mxCell>
        <mxCell id="iCkai9v9nbMNsgSZpqgC-95" value="" style="rounded=0;whiteSpace=wrap;html=1;" vertex="1" parent="1">
          <mxGeometry x="970" y="431.35" width="120" height="28.65" as="geometry" />
        </mxCell>
        <mxCell id="iCkai9v9nbMNsgSZpqgC-97" value="Notification" style="text;html=1;align=center;verticalAlign=middle;whiteSpace=wrap;rounded=0;" vertex="1" parent="1">
          <mxGeometry x="1000" y="430" width="60" height="30" as="geometry" />
        </mxCell>
        <mxCell id="iCkai9v9nbMNsgSZpqgC-98" value="Account&amp;nbsp;" style="rounded=0;whiteSpace=wrap;html=1;" vertex="1" parent="1">
          <mxGeometry x="970" y="470" width="120" height="30" as="geometry" />
        </mxCell>
        <mxCell id="iCkai9v9nbMNsgSZpqgC-99" value="Product management" style="rounded=1;whiteSpace=wrap;html=1;" vertex="1" parent="1">
          <mxGeometry x="1100" y="387.85" width="140" height="37" as="geometry" />
        </mxCell>
        <mxCell id="iCkai9v9nbMNsgSZpqgC-100" value="Merchant management&amp;nbsp;" style="rounded=0;whiteSpace=wrap;html=1;" vertex="1" parent="1">
          <mxGeometry x="1100" y="430" width="140" height="30" as="geometry" />
        </mxCell>
        <mxCell id="iCkai9v9nbMNsgSZpqgC-102" value="" style="rounded=0;whiteSpace=wrap;html=1;" vertex="1" parent="1">
          <mxGeometry x="530" y="313" width="120" height="23" as="geometry" />
        </mxCell>
        <mxCell id="iCkai9v9nbMNsgSZpqgC-103" value="STK PUSH" style="text;html=1;align=center;verticalAlign=middle;whiteSpace=wrap;rounded=0;" vertex="1" parent="1">
          <mxGeometry x="550" y="309.5" width="90" height="30" as="geometry" />
        </mxCell>
        <mxCell id="iCkai9v9nbMNsgSZpqgC-106" value="" style="rounded=0;whiteSpace=wrap;html=1;" vertex="1" parent="1">
          <mxGeometry x="680" y="310" width="150" height="29" as="geometry" />
        </mxCell>
        <mxCell id="iCkai9v9nbMNsgSZpqgC-107" value="Card payment" style="text;html=1;align=center;verticalAlign=middle;whiteSpace=wrap;rounded=0;" vertex="1" parent="1">
          <mxGeometry x="670" y="308.5" width="140" height="30.5" as="geometry" />
        </mxCell>
        <mxCell id="iCkai9v9nbMNsgSZpqgC-108" value="" style="rounded=0;whiteSpace=wrap;html=1;" vertex="1" parent="1">
          <mxGeometry x="850" y="313" width="120" height="25.5" as="geometry" />
        </mxCell>
        <mxCell id="iCkai9v9nbMNsgSZpqgC-109" value="QR Code" style="text;html=1;align=center;verticalAlign=middle;whiteSpace=wrap;rounded=0;" vertex="1" parent="1">
          <mxGeometry x="863" y="311.25" width="90" height="30" as="geometry" />
        </mxCell>
        <mxCell id="iCkai9v9nbMNsgSZpqgC-111" value="" style="rounded=0;whiteSpace=wrap;html=1;" vertex="1" parent="1">
          <mxGeometry x="995" y="310" width="120" height="30" as="geometry" />
        </mxCell>
        <mxCell id="iCkai9v9nbMNsgSZpqgC-113" value="loop payment" style="text;html=1;align=center;verticalAlign=middle;whiteSpace=wrap;rounded=0;" vertex="1" parent="1">
          <mxGeometry x="1015" y="309" width="80" height="30" as="geometry" />
        </mxCell>
        <mxCell id="iCkai9v9nbMNsgSZpqgC-114" value="" style="rounded=0;whiteSpace=wrap;html=1;" vertex="1" parent="1">
          <mxGeometry x="1127" y="311.5" width="120" height="26.25" as="geometry" />
        </mxCell>
        <mxCell id="iCkai9v9nbMNsgSZpqgC-115" value="Split payment" style="text;html=1;align=center;verticalAlign=middle;whiteSpace=wrap;rounded=0;" vertex="1" parent="1">
          <mxGeometry x="1142" y="308.5" width="88" height="30" as="geometry" />
        </mxCell>
        <mxCell id="iCkai9v9nbMNsgSZpqgC-116" value="" style="rounded=0;whiteSpace=wrap;html=1;" vertex="1" parent="1">
          <mxGeometry x="550" y="398" width="150" height="22" as="geometry" />
        </mxCell>
        <mxCell id="iCkai9v9nbMNsgSZpqgC-117" value="REDIS" style="text;html=1;align=center;verticalAlign=middle;whiteSpace=wrap;rounded=0;" vertex="1" parent="1">
          <mxGeometry x="552" y="395" width="60" height="30" as="geometry" />
        </mxCell>
        <mxCell id="iCkai9v9nbMNsgSZpqgC-118" value="" style="rounded=0;whiteSpace=wrap;html=1;" vertex="1" parent="1">
          <mxGeometry x="550" y="431.35" width="150" height="18.65" as="geometry" />
        </mxCell>
        <mxCell id="iCkai9v9nbMNsgSZpqgC-119" value="Kafka" style="text;html=1;align=center;verticalAlign=middle;whiteSpace=wrap;rounded=0;" vertex="1" parent="1">
          <mxGeometry x="550" y="425.67" width="60" height="30" as="geometry" />
        </mxCell>
      </root>
    </mxGraphModel>
  </diagram>
</mxfile>
